<svg width="185" height="185" fill="none" xmlns="http://www.w3.org/2000/svg"><g clip-path="url(#clip0)"><path d="M92.5 181.384c49.084 0 88.874-39.79 88.874-88.873 0-49.084-39.79-88.874-88.873-88.874-49.084 0-88.874 39.79-88.874 88.874 0 49.083 39.79 88.873 88.874 88.873z" fill="#fff"/><path d="M92.5 163.296c39.094 0 70.785-31.691 70.785-70.784 0-39.094-31.691-70.785-70.784-70.785-39.094 0-70.785 31.691-70.785 70.785 0 39.093 31.691 70.784 70.785 70.784z" fill="#fff"/><path d="M92.5 100.46a7.948 7.948 0 100-15.896 7.948 7.948 0 000 15.896z" fill="#FBA820"/><path d="M181.375 88.947h-.002a3.614 3.614 0 00-3.613 3.61c-.011 22.758-8.88 44.153-24.972 60.245-16.103 16.104-37.515 24.973-60.289 24.973s-44.184-8.869-60.288-24.973C16.107 136.699 7.239 115.287 7.239 92.513s8.868-44.185 24.972-60.288C58.054 6.38 97.429-.135 130.189 16.008a3.613 3.613 0 103.194-6.481C97.845-7.985 55.134-.916 27.102 27.116 9.634 44.584.013 67.809.013 92.513c0 24.704 9.62 47.93 27.089 65.398C44.57 175.38 67.796 185 92.5 185c24.704 0 47.929-9.62 65.398-27.088 17.455-17.456 27.076-40.665 27.088-65.35a3.612 3.612 0 00-3.611-3.615z" fill="url(#paint0_linear)"/><path d="M141.563 22.767l.085.06a3.608 3.608 0 005.032-.88 3.613 3.613 0 00-.88-5.033l-.094-.066a3.612 3.612 0 10-4.143 5.919z" fill="url(#paint1_linear)"/><path d="M81.52 88.901H51.675a3.613 3.613 0 000 7.226H81.52a11.612 11.612 0 007.367 7.367v39.444a3.613 3.613 0 007.225 0v-39.445c4.611-1.52 7.949-5.866 7.949-10.98 0-6.374-5.187-11.56-11.561-11.56-5.113 0-9.459 3.338-10.98 7.948zm10.98-.722a4.34 4.34 0 014.335 4.335 4.34 4.34 0 01-4.335 4.335 4.34 4.34 0 01-4.336-4.335 4.34 4.34 0 014.335-4.335z" fill="url(#paint2_linear)"/><path d="M77.473 65.22a3.613 3.613 0 002.14 6.524h16.685a3.613 3.613 0 000-7.226h-7.041c5.02-5.04 10.654-12.328 10.654-19.661 0-7.151-4.805-11.956-11.956-11.956C81.365 32.901 76 38.265 76 44.857a3.613 3.613 0 007.226 0 4.735 4.735 0 014.73-4.73c4.73 0 4.73 3.56 4.73 4.73-.001 7.502-10.984 17.244-15.213 20.363zM116.29 48.723v-12.21a3.613 3.613 0 10-7.226 0v15.823a3.613 3.613 0 003.613 3.613h13.352v12.245a3.613 3.613 0 107.226 0V55.949h.561a3.613 3.613 0 000-7.226h-.561v-12.21a3.613 3.613 0 00-7.226 0v12.21h-9.739zM151.454 71.743a3.613 3.613 0 003.613-3.612v-7.852a4.243 4.243 0 014.238-4.24 4.243 4.243 0 014.239 4.24v7.852a3.613 3.613 0 007.226 0v-7.852c0-6.322-5.143-11.465-11.464-11.465-1.497 0-2.927.292-4.239.816V36.513a3.613 3.613 0 00-7.226 0v31.618a3.613 3.613 0 003.613 3.612z" fill="#FBA820"/></g><defs><linearGradient id="paint0_linear" x1="92.477" y1="19.842" x2="92.477" y2="194.702" gradientUnits="userSpaceOnUse"><stop stop-color="#1B4F90"/><stop offset="1" stop-color="#173C75"/></linearGradient><linearGradient id="paint1_linear" x1="143.68" y1="16.194" x2="146.12" y2="24.307" gradientUnits="userSpaceOnUse"><stop stop-color="#4D87DB"/><stop offset="1" stop-color="#1D57AB"/></linearGradient><linearGradient id="paint2_linear" x1="76.054" y1="87.989" x2="76.054" y2="149.991" gradientUnits="userSpaceOnUse"><stop stop-color="#1B4F90"/><stop offset="1" stop-color="#173C75"/></linearGradient><clipPath id="clip0"><path fill="#fff" d="M0 0h185v185H0z"/></clipPath></defs></svg>