<svg width="60" height="60" fill="none" xmlns="http://www.w3.org/2000/svg"><g clip-path="url(#clip0)"><path d="M60 37.241H0V5.69c0-2 1.621-3.621 3.62-3.621h52.76c2 0 3.62 1.62 3.62 3.62v31.552z" fill="#F0F5FF"/><path d="M42.413 57.931H17.586a4.138 4.138 0 014.138-4.138h16.552a4.138 4.138 0 014.137 4.138z" fill="#1C52A1"/><path d="M37.242 53.793H22.759l2.069-8.276h10.345l2.069 8.276z" fill="#163D76"/><path d="M56.38 45.517H3.62c-1.999 0-3.62-1.62-3.62-3.62V37.24h60v4.655c0 2-1.621 3.621-3.62 3.621z" fill="#1C52A1"/><path d="M36.094 31.477h-4.57v-1.524h4.57c1.26 0 2.285-1.076 2.285-2.336V24.57h1.523v3.047c0 2.1-1.708 3.86-3.808 3.86z" fill="#334E68"/><path d="M39.902 16.953v1.524H38.38v-1.524c0-4.616-3.763-8.43-8.379-8.43s-8.379 3.814-8.379 8.43v1.524h-1.523v-1.524C20.098 11.5 24.546 7 30 7c5.454 0 9.902 4.5 9.902 9.953z" fill="#627D98"/><path d="M39.902 16.953v1.524H38.38v-1.524c0-4.616-3.763-8.43-8.379-8.43V7c5.454 0 9.902 4.5 9.902 9.953z" fill="#334E68"/><path d="M20.86 17.715A2.288 2.288 0 0018.573 20v3.047a2.288 2.288 0 002.285 2.285h3.047v-7.617H20.86zM39.14 17.715h-3.046v7.617h3.047a2.288 2.288 0 002.285-2.285V20a2.288 2.288 0 00-2.285-2.285z" fill="#78C2A4"/><path d="M35.332 16.191h1.523v10.665h-1.523V16.19z" fill="#334E68"/><path d="M23.145 16.191h1.523v10.665h-1.523V16.19zM30 28.43a2.282 2.282 0 00-2.285 2.285A2.282 2.282 0 0030 33a2.282 2.282 0 002.285-2.285A2.282 2.282 0 0030 28.43z" fill="#627D98"/><path d="M32.285 30.715A2.282 2.282 0 0130 33v-4.57a2.282 2.282 0 012.285 2.285z" fill="#334E68"/></g><defs><clipPath id="clip0"><path fill="#fff" d="M0 0h60v60H0z"/></clipPath></defs></svg>