<svg width="64" height="60" fill="none" xmlns="http://www.w3.org/2000/svg"><path d="M64 37.241H4V5.69c0-2 1.621-3.621 3.62-3.621h52.76c2 0 3.62 1.62 3.62 3.62v31.552z" fill="#F0F5FF"/><path d="M46.413 57.931H21.586a4.138 4.138 0 014.138-4.138h16.552a4.138 4.138 0 014.137 4.138z" fill="#1C52A1"/><path d="M41.242 53.793H26.759l2.069-8.276h10.345l2.069 8.276z" fill="#163D76"/><path d="M60.38 45.517H7.62c-1.999 0-3.62-1.62-3.62-3.62V37.24h60v4.655c0 2-1.621 3.621-3.62 3.621z" fill="#1C52A1"/><path d="M18.304 23.22l.592.111c2.833.143 4.245-1.92 4.245-3.985V8.374a3.737 3.737 0 00-3.737-3.737H3.737A3.737 3.737 0 000 8.374v10.972a3.737 3.737 0 003.737 3.738h14.01c.195 0 .386.047.557.136z" fill="#F9BF66"/><path d="M25.263 4.637h-6.509a3.737 3.737 0 013.737 3.737v10.972a3.737 3.737 0 01-3.737 3.738.807.807 0 00-.45.136c.1.052.193.118.276.196l6.063 5.756c.284.269.746.02.676-.365l-.92-5.113a.519.519 0 01.51-.61h.354A3.737 3.737 0 0029 19.346V8.374a3.737 3.737 0 00-3.737-3.737z" fill="#F6B044"/><path d="M25.062 10.154H3.938a.772.772 0 110-1.543h21.124a.772.772 0 110 1.543zM25.062 15.024H14.5a.772.772 0 010-1.544h10.562a.772.772 0 110 1.543z" fill="#F0F5FF"/><path d="M47.852 29.38l-.49.092c-2.345.118-3.513-1.59-3.513-3.299v-9.08A3.093 3.093 0 0146.942 14h12.965A3.093 3.093 0 0163 17.093v9.08a3.093 3.093 0 01-3.093 3.094H48.314a1 1 0 00-.462.112z" fill="#95D6A4"/><path d="M42.093 14h5.386a3.093 3.093 0 00-3.093 3.093v9.08a3.093 3.093 0 003.093 3.093c.14 0 .267.043.373.113-.083.043-.16.098-.229.163l-5.017 4.763a.335.335 0 01-.56-.302l.762-4.231a.43.43 0 00-.423-.506h-.292A3.093 3.093 0 0139 26.174v-9.081A3.093 3.093 0 0142.093 14z" fill="#78C2A4"/><path d="M42.26 18.566H59.74a.639.639 0 100-1.277H42.26a.639.639 0 100 1.277zM42.26 22.596H51a.639.639 0 100-1.277H42.26a.639.639 0 100 1.277z" fill="#F0F5FF"/></svg>