<svg width="60" height="60" fill="none" xmlns="http://www.w3.org/2000/svg"><g clip-path="url(#clip0)"><path d="M47.447 38.797l.695.131c3.324.168 4.98-2.254 4.98-4.676V21.377a4.385 4.385 0 00-4.385-4.385H30.355a4.385 4.385 0 00-4.385 4.385v12.875a4.385 4.385 0 004.385 4.385h16.438c.23 0 .454.056.654.16z" fill="#F9BF66"/><path d="M55.612 16.992h-7.637a4.385 4.385 0 014.385 4.385v12.875a4.385 4.385 0 01-4.385 4.385.947.947 0 00-.528.16c.117.061.227.138.324.23l7.114 6.754a.474.474 0 00.794-.428l-1.08-6a.609.609 0 01.598-.716h.415a4.385 4.385 0 004.385-4.385V21.377a4.385 4.385 0 00-4.385-4.385z" fill="#F6B044"/><path d="M26.51 27.238H4.94a4.938 4.938 0 00-4.938 4.938v14.692a4.938 4.938 0 004.939 4.938h.527c.498 0 .96.26 1.22.685l.09.146h5.78l.557-.42a2.047 2.047 0 011.231-.41H26.51a4.938 4.938 0 004.938-4.94v-14.69a4.938 4.938 0 00-4.938-4.94z" fill="#1C52A1"/><path d="M5.408 51.806c.428 0 .75.387.675.807L4.866 59.37a.534.534 0 00.894.483l8.012-7.606a1.6 1.6 0 011.102-.44H5.408zM33.386 27.238h-7.638a4.938 4.938 0 014.939 4.938v14.692a4.938 4.938 0 01-4.939 4.938h7.637a4.938 4.938 0 004.939-4.938V32.176a4.938 4.938 0 00-4.938-4.938z" fill="#163D76"/><path d="M17.844 0H2.649a2.6 2.6 0 00-2.6 2.6v9.095a2.6 2.6 0 002.6 2.6h6.937c.506 0 .977.261 1.243.692l.02.033h5.85l.128-.175c.252-.346.655-.55 1.083-.55H18.728c1.086-.312 1.715-1.413 1.715-2.6V2.6a2.6 2.6 0 00-2.6-2.6z" fill="#95D6A4"/><path d="M24.866 0h-7.637a2.6 2.6 0 012.6 2.6v9.095c0 1.187-.63 2.288-1.717 2.6h6.754a2.6 2.6 0 002.6-2.6V2.6a2.6 2.6 0 00-2.6-2.6z" fill="#78C2A4"/><path d="M31.556 34.894H6.77a.905.905 0 010-1.811h24.786a.905.905 0 110 1.81zM31.556 40.607H6.77a.905.905 0 110-1.81h24.786a.905.905 0 110 1.81zM19.163 46.321H6.77a.905.905 0 010-1.81h12.393a.905.905 0 110 1.81zM55.377 23.466H30.59a.905.905 0 110-1.81h24.787a.905.905 0 110 1.81zM55.376 29.18H42.983a.905.905 0 110-1.811h12.393a.905.905 0 110 1.81zM22.811 6.008H4.703a.905.905 0 110-1.81H22.81a.905.905 0 010 1.81zM13.757 10.535H4.703a.905.905 0 110-1.81h9.054a.905.905 0 110 1.81z" fill="#F0F5FF"/><path d="M10.219 14.766l2.884 4.98a.755.755 0 001.308 0l2.884-4.98a.945.945 0 01.817-.471h-8.71c.337 0 .648.18.817.47z" fill="#78C2A4"/></g><defs><clipPath id="clip0"><path fill="#fff" d="M0 0h60v60H0z"/></clipPath></defs></svg>