<svg width="60" height="60" fill="none" xmlns="http://www.w3.org/2000/svg"><g clip-path="url(#clip0)"><path d="M0 11.288v37.424c0 .667.54 1.207 1.207 1.207h57.586c.666 0 1.207-.54 1.207-1.207V11.288c0-.667-.54-1.208-1.207-1.208H1.207C.54 10.08 0 10.62 0 11.288z" fill="#F0F5FF"/><path d="M19.897 45.307H5.412a.362.362 0 01-.362-.362v-6.169c0-.953.772-1.725 1.725-1.725h11.759c.953 0 1.725.772 1.725 1.725v6.17c0 .2-.162.361-.362.361z" fill="#95D6A4"/><path d="M18.534 37.051h-2.78c.953 0 1.726.772 1.726 1.725v6.17c0 .2-.163.361-.363.361h2.78c.2 0 .362-.162.362-.362v-6.169c0-.953-.772-1.725-1.725-1.725z" fill="#78C2A4"/><path d="M19.868 16.446c-1.054-1.054-2.601-1.5-4.092-1.494-1.992.009-4.173.838-5.412 2.453a1.644 1.644 0 01-1.303.647h-.738a3.02 3.02 0 00-3.02 3.02v7.452h14.885v-7.028c0-.183.062-.36.171-.508 1.021-1.371.7-3.35-.49-4.542z" fill="#334E68"/><path d="M14.496 37.937l-1.47.996a.664.664 0 01-.744 0l-1.47-.995a.664.664 0 01-.29-.55v-6.825h4.266v6.825c0 .22-.11.426-.292.55z" fill="#EBAE9D"/><path d="M19.488 29.955H5.821c-.753 0-1.362-.61-1.362-1.362v-.728c0-.752.61-1.362 1.362-1.362h13.667c.752 0 1.362.61 1.362 1.362v.728c0 .752-.61 1.362-1.362 1.362z" fill="#FFCDBE"/><path d="M17.238 23.344v6.49a4.397 4.397 0 01-4.397 4.396h-.374a4.397 4.397 0 01-4.397-4.396v-4.686a3.19 3.19 0 012.097-2.995c1.86.629 4.672 1.108 6.622.805a.39.39 0 01.45.386z" fill="#FFCDBE"/><path d="M28 18.604v3.634c0 .333.27.603.604.603h24.715c.334 0 .604-.27.604-.603v-3.634a.604.604 0 00-.604-.604H28.604a.604.604 0 00-.604.604zM47.777 30H29.223C28.548 30 28 29.552 28 29s.548-1 1.223-1h18.554c.675 0 1.223.448 1.223 1s-.547 1-1.223 1zM42.638 34.395H28.905a.905.905 0 110-1.81h13.733a.905.905 0 110 1.81zM42.638 38.81H28.905a.905.905 0 110-1.81h13.733a.905.905 0 110 1.81z" fill="#1C52A1"/></g><defs><clipPath id="clip0"><path fill="#fff" d="M0 0h60v60H0z"/></clipPath></defs></svg>