<svg width="60" height="60" fill="none" xmlns="http://www.w3.org/2000/svg"><g clip-path="url(#clip0)"><path d="M58.55 47.75a6.25 6.25 0 01-4.8 2.25H6.25a6.25 6.25 0 01-4.8-2.25l22.925-19.1 2.375 1.625a5.722 5.722 0 006.5 0l2.375-1.625 22.925 19.1z" fill="#E0EDFC"/><path d="M58.9 12.725L35.625 28.65l-2.375 1.625a5.722 5.722 0 01-6.5 0l-2.375-1.625L1.1 12.7A6.277 6.277 0 016.25 10h47.5a6.167 6.167 0 015.15 2.725z" fill="#BAD8F9"/><path d="M24.375 28.65L1.45 47.75a6.222 6.222 0 01-1.45-4v-27.5a6.16 6.16 0 011.1-3.55l23.275 15.95zM60 16.25v27.5a6.222 6.222 0 01-1.45 4l-22.925-19.1L58.9 12.725A6.14 6.14 0 0160 16.25z" fill="#F0F5FF"/></g><defs><clipPath id="clip0"><path fill="#fff" d="M0 0h60v60H0z"/></clipPath></defs></svg>