<svg width="342" height="342" fill="none" xmlns="http://www.w3.org/2000/svg"><path opacity=".1" d="M171.09 341.087c94.386 0 170.9-76.355 170.9-170.544C341.99 76.355 265.476 0 171.09 0 76.705 0 .19 76.355.19 170.543c0 94.189 76.515 170.544 170.9 170.544z" fill="#F7F9FD"/><path opacity=".2" d="M171.09 320.643c83.071 0 150.414-67.202 150.414-150.1s-67.343-150.1-150.414-150.1c-83.07 0-150.413 67.203-150.413 150.1 0 82.898 67.342 150.1 150.413 150.1z" fill="#F7F9FD"/><path d="M170.867 295.691c69.541 0 125.916-56.117 125.916-125.341 0-69.224-56.375-125.34-125.916-125.34-69.542 0-125.917 56.116-125.917 125.34s56.375 125.341 125.917 125.341z" fill="#F7F9FD"/><path d="M200.977 159.763a28.292 28.292 0 010 15.558 23.9 23.9 0 012.161 6.963 32.743 32.743 0 003.481-14.733 32.823 32.823 0 00-3.49-14.743 24.014 24.014 0 01-2.152 6.955z" fill="url(#paint0_linear)"/><path d="M213.598 167.551c0-11.609-4.946-22.054-12.841-29.357a23.972 23.972 0 012.638 10.565 35.018 35.018 0 015.45 18.783 35.02 35.02 0 01-5.45 18.783 24.102 24.102 0 01-2.656 10.592c7.904-7.293 12.859-17.748 12.859-29.366z" fill="url(#paint1_linear)"/><path d="M199.365 162.576a24.256 24.256 0 01-4.406 4.966 24.279 24.279 0 014.406 4.975 26.21 26.21 0 000-9.941z" fill="url(#paint2_linear)"/><path d="M155.108 185.885c0-7.339 3.278-13.918 8.444-18.343-5.166-4.435-8.444-11.004-8.444-18.344 0-9.116 5.046-17.042 12.493-21.156-19.198 2.914-33.917 19.498-33.917 39.518 0 6.441 1.53 12.516 4.232 17.904l-9.132 19.205c-.742 1.548.65 3.271 2.326 2.858l22.395-5.451a39.729 39.729 0 0014.141 5.002c-7.473-4.105-12.538-12.058-12.538-21.193z" fill="url(#paint3_linear)"/><path d="M179.389 173.039c7.08 0 12.823 5.745 12.823 12.828 0 2.062-.495 4.004-1.365 5.736l2.94 6.175a.652.652 0 01-.742.917l-7.199-1.751a12.722 12.722 0 01-6.448 1.751c-7.08 0-12.832-5.745-12.832-12.828 0-7.083 5.743-12.828 12.823-12.828zm0-36.696c7.08 0 12.823 5.745 12.823 12.828 0 7.083-5.743 12.827-12.823 12.827-2.354 0-4.552-.641-6.448-1.75l-7.2 1.75a.653.653 0 01-.741-.916l2.94-6.175a12.732 12.732 0 01-1.365-5.736c0-7.083 5.743-12.828 12.814-12.828z" fill="#F6B044"/><defs><linearGradient id="paint0_linear" x1="203.797" y1="136.565" x2="203.797" y2="211.724" gradientUnits="userSpaceOnUse"><stop stop-color="#1B4F90"/><stop offset="1" stop-color="#173C75"/></linearGradient><linearGradient id="paint1_linear" x1="207.168" y1="136.565" x2="207.168" y2="211.724" gradientUnits="userSpaceOnUse"><stop stop-color="#1B4F90"/><stop offset="1" stop-color="#173C75"/></linearGradient><linearGradient id="paint2_linear" x1="197.399" y1="136.565" x2="197.399" y2="211.724" gradientUnits="userSpaceOnUse"><stop stop-color="#1B4F90"/><stop offset="1" stop-color="#173C75"/></linearGradient><linearGradient id="paint3_linear" x1="148.114" y1="136.565" x2="148.114" y2="211.724" gradientUnits="userSpaceOnUse"><stop stop-color="#1B4F90"/><stop offset="1" stop-color="#173C75"/></linearGradient></defs></svg>