<svg width="300" height="40" fill="none" xmlns="http://www.w3.org/2000/svg"><path d="M189.872 10.587c0 1.03.24 2.012.698 2.874l-1.469 3.09c-.12.24.096.527.385.455l3.612-.886c.963.55 2.071.886 3.25.886 3.564 0 6.453-2.874 6.453-6.42 0-3.544-2.889-6.419-6.453-6.419-3.587 0-6.476 2.875-6.476 6.42z" fill="url(#paint0_linear)"/><path d="M196.324 35.353c1.18 0 2.288-.311 3.251-.886l3.611.886c.265.072.506-.216.385-.455l-1.468-3.09a6.42 6.42 0 00.698-2.874c0-3.545-2.889-6.42-6.453-6.42-3.563 0-6.452 2.875-6.452 6.42-.024 3.545 2.865 6.419 6.428 6.419z" fill="url(#paint1_linear)"/><path d="M59.374 21.174c0 7.018-4.936 11.808-12.135 11.808-7.223 0-12.183-4.79-12.183-11.808 0-6.97 4.936-11.713 12.183-11.713 7.2 0 12.135 4.742 12.135 11.713zm-19.261.095c0 4.48 2.937 7.545 7.126 7.545 4.166 0 7.103-3.042 7.103-7.545 0-4.43-2.937-7.545-7.103-7.545-4.189 0-7.126 3.09-7.126 7.545z" fill="url(#paint2_linear)"/><path d="M85.715 18.395v14.42h-5.056v-13.03c0-3.474-2.095-5.63-5.61-5.63-3.853.049-6.26 2.707-6.622 6.324v12.335h-5.032V9.653h5.032v4.43C70.09 10.85 73.074 9.462 77 9.462c5.465 0 8.716 3.401 8.716 8.934z" fill="url(#paint3_linear)"/><path d="M92.336 9.629l6.476 18.251 6.405-18.251h5.032l-8.933 23.162h-5.2l-9.03-23.162h5.25z" fill="url(#paint4_linear)"/><path d="M132.689 23.138h-17.6c.794 3.568 3.539 5.796 7.223 5.796 2.528 0 4.863-.958 6.573-2.707l2.672 2.827c-2.287 2.49-5.61 3.928-9.631 3.928-7.175 0-11.918-4.743-11.918-11.713 0-7.018 4.864-11.76 11.774-11.808 8.21 0 11.533 5.317 10.907 13.677zm-4.382-3.665c-.169-3.737-2.673-6.012-6.477-6.012-3.684 0-6.308 2.3-6.838 6.012h13.315z" fill="url(#paint5_linear)"/><path d="M149.88 9.46v4.791c-4.695-.263-7.657 2.491-8.066 6.444v12.12h-5.032V9.652h5.032v4.622c1.589-3.161 4.382-4.814 8.066-4.814z" fill="url(#paint6_linear)"/><path d="M160.064 13.413c-1.974 0-3.418.647-3.418 2.3 0 4.263 12.399 1.964 12.351 10.37 0 4.743-4.238 6.875-8.933 6.875-3.418 0-7.054-1.126-9.366-3.233l1.806-3.57c2.023 1.797 5.249 2.875 7.801 2.875 2.143 0 3.804-.743 3.804-2.491 0-4.743-12.255-2.084-12.207-10.443 0-4.695 4.118-6.707 8.572-6.707 2.937 0 6.043.862 8.138 2.348l-1.83 3.712c-2.071-1.245-4.647-2.036-6.718-2.036z" fill="url(#paint7_linear)"/><path d="M35.37 33.006l-2.697-2.898-.41-.431-.433.407c-2.985 2.826-7.006 4.431-10.979 4.431-8.33 0-15.096-6.587-15.096-14.683 0-3.928 1.565-7.616 4.406-10.37 2.841-2.755 6.621-4.264 10.69-4.264 4.045 0 8.042 1.676 10.98 4.598l.457.456.41-.504 2.648-3.185.36-.431-.409-.383C31.397 2.107 26.1 0 20.803 0 15.241 0 10.041 2.036 6.164 5.748c-3.9 3.713-6.043 8.72-6.043 14.06 0 5.414 2.119 10.444 5.971 14.18 3.852 3.736 9.005 5.796 14.543 5.796 5.296 0 10.666-2.18 14.71-5.964l.434-.407-.41-.407z" fill="url(#paint8_linear)"/><path d="M224.398 3.018c0 1.7-1.276 2.97-2.937 2.97-1.662 0-2.938-1.27-2.938-2.97 0-1.749 1.276-2.994 2.938-2.994 1.685-.024 2.937 1.245 2.937 2.994zm-.433 6.61V32.79h-4.984V9.63h4.984z" fill="url(#paint9_linear)"/><path d="M252.207 21.174c0 7.018-4.936 11.808-12.135 11.808-7.223 0-12.183-4.79-12.183-11.808 0-6.97 4.936-11.713 12.183-11.713 7.175 0 12.135 4.742 12.135 11.713zm-19.286.095c0 4.48 2.938 7.545 7.127 7.545 4.165 0 7.103-3.042 7.103-7.545 0-4.43-2.938-7.545-7.103-7.545-4.189 0-7.127 3.09-7.127 7.545z" fill="url(#paint10_linear)"/><path d="M278.523 18.395v14.42h-5.032v-13.03c0-3.474-2.095-5.63-5.61-5.63-3.852.049-6.26 2.707-6.621 6.324v12.335h-5.032V9.653h5.032v4.43c1.661-3.233 4.647-4.622 8.571-4.622 5.442 0 8.692 3.401 8.692 8.934z" fill="url(#paint11_linear)"/><path d="M290.947 13.413c-1.974 0-3.419.646-3.419 2.299 0 4.264 12.4 1.964 12.352 10.371 0 4.743-4.238 6.875-8.933 6.875-3.419 0-7.055-1.126-9.366-3.234l1.806-3.569c2.022 1.796 5.248 2.874 7.801 2.874 2.143 0 3.804-.742 3.804-2.49 0-4.743-12.255-2.085-12.207-10.444 0-4.694 4.117-6.706 8.571-6.706 2.938 0 6.044.862 8.138 2.347l-1.83 3.713c-2.07-1.246-4.646-2.036-6.717-2.036z" fill="url(#paint12_linear)"/><path d="M207.183 15.88c.361 1.246.554 2.54.554 3.905 0 1.34-.193 2.658-.554 3.88.53 1.078.891 2.251 1.084 3.473 1.107-2.228 1.757-4.719 1.757-7.378 0-2.658-.626-5.15-1.757-7.377a12.093 12.093 0 01-1.084 3.497z" fill="url(#paint13_linear)"/><path d="M213.539 19.76c0-5.796-2.48-11.041-6.452-14.682a11.81 11.81 0 011.324 5.293 17.45 17.45 0 012.745 9.39c0 3.449-1.012 6.682-2.745 9.389a11.51 11.51 0 01-1.349 5.293c3.973-3.64 6.477-8.862 6.477-14.682z" fill="url(#paint14_linear)"/><path d="M206.365 17.27a12.21 12.21 0 01-2.215 2.49 12.214 12.214 0 012.215 2.492c.144-.815.24-1.63.24-2.491 0-.839-.072-1.677-.24-2.491z" fill="url(#paint15_linear)"/><path d="M184.093 28.934c0-3.665 1.661-6.97 4.262-9.174-2.601-2.227-4.262-5.509-4.262-9.173 0-4.551 2.528-8.527 6.284-10.587-9.655 1.461-17.07 9.748-17.07 19.76 0 3.234.77 6.252 2.118 8.959l-4.598 9.604c-.361.767.337 1.63 1.179 1.438l11.268-2.731a20.542 20.542 0 007.127 2.515c-3.756-2.06-6.308-6.036-6.308-10.61z" fill="url(#paint16_linear)"/><defs><linearGradient id="paint0_linear" x1="195.913" y1="6.169" x2="195.913" y2="55.479" gradientUnits="userSpaceOnUse"><stop stop-color="#FFA61E"/><stop offset="1" stop-color="#FF8B18"/></linearGradient><linearGradient id="paint1_linear" x1="196.737" y1="6.168" x2="196.737" y2="55.479" gradientUnits="userSpaceOnUse"><stop stop-color="#FFA61E"/><stop offset="1" stop-color="#FF8B18"/></linearGradient><linearGradient id="paint2_linear" x1="47.228" y1="4.267" x2="47.228" y2="41.871" gradientUnits="userSpaceOnUse"><stop stop-color="#1B4F90"/><stop offset="1" stop-color="#173C75"/></linearGradient><linearGradient id="paint3_linear" x1="74.56" y1="4.267" x2="74.56" y2="41.871" gradientUnits="userSpaceOnUse"><stop stop-color="#1B4F90"/><stop offset="1" stop-color="#173C75"/></linearGradient><linearGradient id="paint4_linear" x1="98.652" y1="4.267" x2="98.652" y2="41.871" gradientUnits="userSpaceOnUse"><stop stop-color="#1B4F90"/><stop offset="1" stop-color="#173C75"/></linearGradient><linearGradient id="paint5_linear" x1="121.392" y1="4.267" x2="121.392" y2="41.871" gradientUnits="userSpaceOnUse"><stop stop-color="#1B4F90"/><stop offset="1" stop-color="#173C75"/></linearGradient><linearGradient id="paint6_linear" x1="143.339" y1="4.267" x2="143.339" y2="41.871" gradientUnits="userSpaceOnUse"><stop stop-color="#1B4F90"/><stop offset="1" stop-color="#173C75"/></linearGradient><linearGradient id="paint7_linear" x1="159.853" y1="4.267" x2="159.853" y2="41.871" gradientUnits="userSpaceOnUse"><stop stop-color="#1B4F90"/><stop offset="1" stop-color="#173C75"/></linearGradient><linearGradient id="paint8_linear" x1="17.945" y1="4.267" x2="17.945" y2="41.871" gradientUnits="userSpaceOnUse"><stop stop-color="#1B4F90"/><stop offset="1" stop-color="#173C75"/></linearGradient><linearGradient id="paint9_linear" x1="221.474" y1="4.267" x2="221.474" y2="41.871" gradientUnits="userSpaceOnUse"><stop stop-color="#1B4F90"/><stop offset="1" stop-color="#173C75"/></linearGradient><linearGradient id="paint10_linear" x1="240.046" y1="4.267" x2="240.046" y2="41.871" gradientUnits="userSpaceOnUse"><stop stop-color="#1B4F90"/><stop offset="1" stop-color="#173C75"/></linearGradient><linearGradient id="paint11_linear" x1="267.378" y1="4.267" x2="267.378" y2="41.871" gradientUnits="userSpaceOnUse"><stop stop-color="#1B4F90"/><stop offset="1" stop-color="#173C75"/></linearGradient><linearGradient id="paint12_linear" x1="290.739" y1="4.266" x2="290.739" y2="41.87" gradientUnits="userSpaceOnUse"><stop stop-color="#1B4F90"/><stop offset="1" stop-color="#173C75"/></linearGradient><linearGradient id="paint13_linear" x1="208.6" y1="4.267" x2="208.6" y2="41.871" gradientUnits="userSpaceOnUse"><stop stop-color="#1B4F90"/><stop offset="1" stop-color="#173C75"/></linearGradient><linearGradient id="paint14_linear" x1="210.296" y1="4.267" x2="210.296" y2="41.871" gradientUnits="userSpaceOnUse"><stop stop-color="#1B4F90"/><stop offset="1" stop-color="#173C75"/></linearGradient><linearGradient id="paint15_linear" x1="205.382" y1="4.267" x2="205.382" y2="41.871" gradientUnits="userSpaceOnUse"><stop stop-color="#1B4F90"/><stop offset="1" stop-color="#173C75"/></linearGradient><linearGradient id="paint16_linear" x1="180.585" y1="4.267" x2="180.585" y2="41.871" gradientUnits="userSpaceOnUse"><stop stop-color="#1B4F90"/><stop offset="1" stop-color="#173C75"/></linearGradient></defs></svg>