<svg width="13" height="16" fill="none" xmlns="http://www.w3.org/2000/svg"><path d="M2.782 12.545c-.2.852-.212 2.38-.035 2.827.177.446.362.627.362.627l.324-.39c.407-.654 1.018-1.726 1.245-2.582l.624-2.341c.327.612 1.282 1.131 2.298 1.131 3.022 0 5.2-2.732 5.2-6.128C12.8 2.435 10.098 0 6.622 0 2.297 0 0 2.855 0 5.963c0 1.444.782 3.244 2.033 3.817.19.086.292.047.336-.133.033-.136.203-.806.278-1.117a.294.294 0 00-.07-.283c-.414-.493-.745-1.402-.745-2.248 0-2.173 1.674-4.275 4.525-4.275 2.463 0 4.186 1.648 4.186 4.007 0 2.665-1.369 4.512-3.15 4.512-.984 0-1.72-.799-1.485-1.78.284-1.172.83-2.435.83-3.28 0-.757-.413-1.388-1.267-1.388-1.007 0-1.813 1.022-1.813 2.393 0 .872.3 1.462.3 1.462s-.994 4.128-1.176 4.896z" fill="#456491"/></svg>