<svg width="60" height="60" fill="none" xmlns="http://www.w3.org/2000/svg"><g clip-path="url(#clip0)"><path d="M42.704 0H18.295A4.3 4.3 0 0014 4.293v51.414A4.3 4.3 0 0018.295 60h24.41A4.3 4.3 0 0047 55.707V4.293A4.3 4.3 0 0042.704 0z" fill="#1C52A1"/><path d="M21.848 3.184a2.24 2.24 0 01-.35-1.209c0-.878.497-1.633 1.21-1.975h-4.632C15.825 0 14 1.922 14 4.293v51.414C14 58.078 15.825 60 18.076 60H23V6.946c0-1.35-.436-2.642-1.152-3.762z" fill="#163D76"/><path d="M43.128 2h-4.053c-.373 0-.676.284-.676.634 0 .84-.731 1.527-1.625 1.527H29l.035.04H23.81c-.85 0-1.544-.7-1.544-1.555A.643.643 0 0021.626 2h-3.754A1.88 1.88 0 0016 3.886v52.27c0 1.019.838 1.844 1.872 1.844h25.257C44.162 58 45 57.175 45 56.156V3.852c0-.283-.067-.55-.188-.79A1.871 1.871 0 0043.129 2z" fill="#F0F5FF"/><path d="M19.108 29.339l.489.092c2.338.118 3.503-1.586 3.503-3.29v-9.056A3.085 3.085 0 0020.016 14H7.085A3.085 3.085 0 004 17.085v9.056a3.085 3.085 0 003.085 3.085h11.563c.161 0 .32.04.46.113z" fill="#F9BF66"/><path d="M24.852 14H19.48a3.085 3.085 0 013.084 3.085v9.056a3.085 3.085 0 01-3.084 3.085.666.666 0 00-.372.113 1 1 0 01.228.162l5.005 4.75a.334.334 0 00.558-.301l-.76-4.22a.428.428 0 01.421-.504h.292a3.085 3.085 0 003.085-3.085v-9.056A3.085 3.085 0 0024.852 14z" fill="#F6B044"/><path d="M24.686 18.554H7.25a.637.637 0 110-1.274h17.436a.637.637 0 110 1.274zM24.686 22.573h-8.718a.637.637 0 110-1.273h8.718a.637.637 0 110 1.273z" fill="#F0F5FF"/><path d="M43.497 34.423l-.405.076c-1.935.097-2.899-1.313-2.899-2.723v-7.495a2.553 2.553 0 012.553-2.552h10.701A2.553 2.553 0 0156 24.282v7.495a2.553 2.553 0 01-2.553 2.553h-9.57a.824.824 0 00-.38.093z" fill="#95D6A4"/><path d="M38.743 21.729h4.446a2.553 2.553 0 00-2.553 2.552v7.495a2.553 2.553 0 002.553 2.553c.115 0 .22.035.308.094a.825.825 0 00-.189.134l-4.142 3.931a.276.276 0 01-.461-.25l.629-3.492a.354.354 0 00-.35-.417h-.24a2.553 2.553 0 01-2.553-2.553v-7.495a2.553 2.553 0 012.552-2.552z" fill="#78C2A4"/><path d="M38.88 25.497h14.43a.527.527 0 000-1.054H38.88a.527.527 0 100 1.054zM38.88 28.824h7.215a.527.527 0 000-1.055h-7.214a.527.527 0 100 1.055z" fill="#F0F5FF"/></g><defs><clipPath id="clip0"><path fill="#fff" d="M0 0h60v60H0z"/></clipPath></defs></svg>