<svg width="60" height="60" fill="none" xmlns="http://www.w3.org/2000/svg"><path d="M42.704 0H18.295A4.3 4.3 0 0014 4.293v51.414A4.3 4.3 0 0018.295 60h24.41A4.3 4.3 0 0047 55.707V4.293A4.3 4.3 0 0042.704 0z" fill="#1C52A1"/><path d="M21.848 3.184a2.24 2.24 0 01-.35-1.209c0-.878.497-1.633 1.21-1.975h-4.632C15.825 0 14 1.922 14 4.293v51.414C14 58.078 15.825 60 18.076 60H23V6.946c0-1.35-.436-2.642-1.152-3.762z" fill="#163D76"/><path d="M43.128 2h-4.054c-.373 0-.675.284-.675.634 0 .84-.731 1.527-1.626 1.527H29l.035.04H23.81c-.849 0-1.544-.7-1.544-1.556a.643.643 0 00-.64-.645h-3.754A1.88 1.88 0 0016 3.886v52.27c0 1.019.838 1.844 1.871 1.844H43.13C44.162 58 45 57.175 45 56.156V3.852c0-.283-.067-.55-.188-.79A1.87 1.87 0 0043.128 2z" fill="#F0F5FF"/><path d="M33.706 18H20.294C19.027 18 18 19.395 18 21.115v10.9c0 1.721 1.027 3.116 2.294 3.116h6.123c.447 0 .862.314 1.098.83l.017.039h5.164l.112-.21c.223-.414.314-.79.692-.79h1c.959-.373 1.5-1.562 1.5-2.984v-10.9C36 19.394 34.973 18 33.706 18z" fill="#95D6A4"/><path d="M39.715 18H33c1.262 0 2.285 1.384 2.285 3.092v10.816c0 1.412-.553 2.722-1.508 3.092h5.938C40.977 35 42 33.616 42 31.908V21.092C42 19.384 40.977 18 39.715 18z" fill="#78C2A4"/><path d="M38.166 25.633H21.834a.817.817 0 010-1.633h16.332a.817.817 0 110 1.633zM30 29.716h-8.166a.816.816 0 110-1.634H30a.817.817 0 010 1.634z" fill="#F0F5FF"/><path d="M26.81 35.316l2.6 4.492a.681.681 0 001.18 0l2.6-4.492c.153-.262.506-.316.81-.316h-8c.304 0 .657.054.81.316z" fill="#78C2A4"/></svg>