<svg width="60" height="60" fill="none" xmlns="http://www.w3.org/2000/svg"><path d="M42.704 0H18.295A4.3 4.3 0 0014 4.293v51.414A4.3 4.3 0 0018.295 60h24.41A4.3 4.3 0 0047 55.707V4.293A4.3 4.3 0 0042.704 0z" fill="#1C52A2"/><path d="M21.848 3.184a2.24 2.24 0 01-.35-1.209c0-.878.497-1.633 1.21-1.975h-4.632C15.825 0 14 1.922 14 4.293v51.414C14 58.078 15.825 60 18.076 60H23V6.946c0-1.35-.436-2.642-1.152-3.762z" fill="#163D76"/><path d="M43.128 2h-4.054c-.373 0-.675.284-.675.634 0 .84-.731 1.527-1.626 1.527H29l.035.04H23.81c-.849 0-1.544-.7-1.544-1.556a.643.643 0 00-.64-.645h-3.754A1.88 1.88 0 0016 3.886v52.27c0 1.019.838 1.844 1.871 1.844H43.13C44.162 58 45 57.175 45 56.156V3.852c0-.283-.067-.55-.188-.79A1.87 1.87 0 0043.128 2z" fill="#F0F5FF"/><path d="M32.588 35.85l-1.21.598c-.241.12-.508.187-.768.116-.852-.231-2.865-1.276-4.127-5.988-1.263-4.711-.042-6.622.58-7.248.19-.192.454-.267.723-.285l1.347-.087a1.82 1.82 0 001.7-1.933l-.247-3.816a1.82 1.82 0 00-1.6-1.69l-1.034-.123a3.344 3.344 0 00-2.239.53c-.551.364-1.06.788-1.418 1.344-1.125 1.753-3.292 6.419-1.203 14.217 2.09 7.798 6.3 10.755 8.15 11.71.588.303 1.241.416 1.9.456.79.047 1.571-.187 2.204-.66l.834-.624a1.82 1.82 0 00.541-2.264l-1.695-3.428a1.82 1.82 0 00-2.438-.825z" fill="#163D76"/><path d="M46.108 33.98c-.261.07-.55.035-.806-.122a1.164 1.164 0 01-.409-1.527c2.649-4.905.942-11.275-3.805-14.2a1.164 1.164 0 01-.409-1.526c.286-.528.93-.7 1.442-.386 5.767 3.552 7.84 11.292 4.623 17.252-.143.265-.376.44-.636.51z" fill="#FBA820"/><path d="M41.403 33.416c-.264.07-.554.04-.81-.109a1.077 1.077 0 01-.392-1.465c1.849-3.225.738-7.369-2.475-9.237a1.077 1.077 0 01-.393-1.465 1.06 1.06 0 011.456-.39c4.233 2.46 5.696 7.92 3.26 12.167a1.059 1.059 0 01-.646.499z" fill="#FBA820"/><path d="M37.122 30.912a1.15 1.15 0 01-.833-.088.97.97 0 01-.374-1.398c.96-1.524.445-3.449-1.15-4.29a.97.97 0 01-.374-1.397 1.17 1.17 0 011.51-.405c2.634 1.388 3.486 4.567 1.898 7.086a1.149 1.149 0 01-.677.492z" fill="#FBA820"/></svg>