<svg width="19" height="16" fill="none" xmlns="http://www.w3.org/2000/svg"><path fill-rule="evenodd" clip-rule="evenodd" d="M18.491 3.702c-.082 1.8-1.34 4.266-3.773 7.396C12.203 14.366 10.075 16 8.334 16c-1.079 0-1.99-.994-2.737-2.985L4.105 7.54C3.55 5.55 2.957 4.554 2.322 4.554c-.139 0-.623.29-1.452.87L0 4.305C.913 3.502 1.814 2.7 2.7 1.897 3.917.845 4.832.29 5.44.236 6.881.097 7.767 1.08 8.1 3.187c.36 2.273.609 3.686.748 4.24.416 1.885.873 2.827 1.371 2.827.387 0 .969-.611 1.745-1.835.774-1.223 1.189-2.153 1.245-2.793.11-1.055-.305-1.584-1.245-1.584-.443 0-.9.102-1.37.303.91-2.978 2.646-4.424 5.21-4.341 1.901.056 2.798 1.288 2.688 3.698z" fill="#456491"/></svg>